<?xml version="1.0" encoding="UTF-8" standalone="no"?>
<!-- Uploaded to: SVG Repo, www.svgrepo.com, Generator: SVG Repo Mixer Tools -->

<svg
   fill="#000000"
   width="1451.827"
   height="542.75629"
   viewBox="0 0 43.554811 16.282688"
   data-name="Layer 1"
   version="1.1"
   id="svg1"
   sodipodi:docname="logo.svg"
   inkscape:version="1.3 (0e150ed6c4, 2023-07-21)"
   inkscape:export-filename="delej weby logo.pdf"
   inkscape:export-xdpi="96"
   inkscape:export-ydpi="96"
   xmlns:inkscape="http://www.inkscape.org/namespaces/inkscape"
   xmlns:sodipodi="http://sodipodi.sourceforge.net/DTD/sodipodi-0.dtd"
   xmlns="http://www.w3.org/2000/svg"
   xmlns:svg="http://www.w3.org/2000/svg">
  <defs
     id="defs1" />
  <sodipodi:namedview
     id="namedview1"
     pagecolor="#ffffff"
     bordercolor="#000000"
     borderopacity="0.25"
     inkscape:showpageshadow="2"
     inkscape:pageopacity="0.0"
     inkscape:pagecheckerboard="0"
     inkscape:deskcolor="#d1d1d1"
     inkscape:zoom="0.36283417"
     inkscape:cx="501.60656"
     inkscape:cy="194.30364"
     inkscape:window-width="1920"
     inkscape:window-height="1017"
     inkscape:window-x="-8"
     inkscape:window-y="-8"
     inkscape:window-maximized="1"
     inkscape:current-layer="svg1" />
  <path
     d="m 9.4323778,8.91936 c 0.156891,0.155617 0.369281,0.242367 0.5902542,0.241089 0.220975,0.0012 0.433365,-0.08547 0.590255,-0.241089 0.327881,-0.325204 0.327881,-0.8553059 0,-1.1805093 L 9.9561258,7.0820892 10.612887,6.4253269 C 11.399891,5.6383217 10.219383,4.4578131 9.4323778,5.2448184 l -1.247015,1.2470162 c -0.3278806,0.3252024 -0.3278806,0.855306 0,1.1805082 z"
     id="path1-4-1"
     sodipodi:nodetypes="cccccssccc"
     style="fill:#00a356;fill-opacity:1;stroke-width:0.831344" />
  <path
     d="m 5.3672252,7.8571118 c 0.681222,0 1.022256,-0.8235673 0.540618,-1.3052057 -0.481638,-0.4816385 -1.3052058,-0.1406045 -1.3052058,0.5406177 0,0.4222701 0.3423178,0.764588 0.7645878,0.764588 z m 4.0981916,2.4696192 c -1.053124,0.849085 -2.5557326,0.849085 -3.6088556,0 -0.784976,-0.652448 -1.7636488,0.525017 -0.978672,1.177465 1.611539,1.3453 3.9546596,1.3453 5.5661988,0 0.784976,-0.652448 -0.193696,-1.829913 -0.9786712,-1.177465 z"
     id="path1-4"
     sodipodi:nodetypes="ssssccccc"
     style="fill:#ed1846;fill-opacity:1;stroke-width:0.764588" />
  <path
     d="m 7.6609892,0.97582156 c -6.81222362,0 -10.2225632,8.23567144 -5.4061777,13.05205644 4.8163837,4.816385 13.0520545,1.406045 13.0520545,-5.406178 0,-4.2227022 -3.423177,-7.64587844 -7.6458768,-7.64587844 z m 0,13.76258044 c -5.449779,0 -8.17805052,-6.5885355 -4.3249428,-10.4416445 C 7.1891542,0.44364916 13.777691,3.1719207 13.777691,8.6217 c 0,3.378161 -2.738541,6.116702 -6.1167018,6.116702 z"
     id="path1"
     sodipodi:nodetypes="ssssssss"
     style="fill:#000000;stroke-width:0.764588;fill-opacity:1" />
  <path
     d="m 5.3672252,7.8571118 c 0.681222,0 1.022256,-0.8235673 0.540618,-1.3052057 -0.481638,-0.4816385 -1.3052058,-0.1406045 -1.3052058,0.5406177 0,0.4222701 0.3423178,0.764588 0.7645878,0.764588 z m 4.0981916,2.4696192 c -1.053124,0.849085 -2.5557326,0.849085 -3.6088556,0 -0.784976,-0.652448 -1.7636488,0.525017 -0.978672,1.177465 1.611539,1.3453 3.9546596,1.3453 5.5661988,0 0.784976,-0.652448 -0.193696,-1.829913 -0.9786712,-1.177465 z"
     id="path3"
     sodipodi:nodetypes="ssssccccc"
     style="fill:#000000;fill-opacity:1;stroke-width:0.764588" />
  <g
     id="text3"
     style="font-size:8.38621px;line-height:0;font-family:Montserrat;-inkscape-font-specification:Montserrat;stroke:#ffffff;stroke-width:2.91189"
     transform="scale(0.94208503,1.0614753)"
     aria-label="DĚLEJ&#10;WEBY">
    <path
       style="font-weight:900;line-height:0.5;font-family:Nunito;-inkscape-font-specification:'Nunito Heavy';stroke:none"
       d="m 20.106978,8.2354126 q -0.394152,0 -0.603807,-0.2012691 Q 19.301902,7.8244883 19.301902,7.4387226 V 3.1198242 q 0,-0.3857657 0.201269,-0.5870347 0.209655,-0.2096553 0.603807,-0.2096553 h 1.643697 q 1.543063,0 2.381684,0.7715314 0.847007,0.7715314 0.847007,2.1804147 0,0.7044417 -0.218041,1.2579316 -0.218042,0.5451037 -0.628966,0.9308693 -0.410924,0.3773795 -1.014731,0.5786486 -0.595421,0.1928828 -1.366953,0.1928828 z m 0.737987,-1.2495454 h 0.805076 q 0.444469,0 0.763145,-0.1090207 0.327062,-0.1090207 0.536717,-0.318676 0.218042,-0.2096553 0.318676,-0.5283312 0.109021,-0.318676 0.109021,-0.754759 0,-0.8721659 -0.427697,-1.2830902 -0.427696,-0.4193105 -1.299862,-0.4193105 h -0.805076 z m 5.853569,1.2495454 q -0.394152,0 -0.603807,-0.2012691 -0.20127,-0.2096552 -0.20127,-0.5954209 V 3.1198242 q 0,-0.3857657 0.20127,-0.5870347 0.209655,-0.2096553 0.603807,-0.2096553 h 2.842925 q 0.301904,0 0.452855,0.1509518 0.150952,0.1509518 0.150952,0.436083 0,0.2935173 -0.150952,0.4528553 -0.150951,0.1509518 -0.452855,0.1509518 h -2.172028 v 1.1237522 h 1.987531 q 0.293518,0 0.44447,0.1509518 0.159338,0.1509518 0.159338,0.4444692 0,0.2935173 -0.159338,0.4444691 -0.150952,0.1509518 -0.44447,0.1509518 h -1.987531 v 1.2160005 h 2.172028 q 0.301904,0 0.452855,0.159338 0.150952,0.1509518 0.150952,0.436083 0,0.2935173 -0.150952,0.4444691 -0.150951,0.1509518 -0.452855,0.1509518 z M 28.149348,1.954141 q -0.259972,0 -0.469628,-0.1090208 Q 27.478451,1.7277133 27.310727,1.5012856 L 26.857872,0.87231983 q -0.109021,-0.159338 -0.07548,-0.30190358 0.04193,-0.14256557 0.17611,-0.22642768 0.13418,-0.0838621 0.301904,-0.0754759 0.167724,0.008386 0.301903,0.159338 l 0.587035,0.64573822 0.587035,-0.64573822 q 0.142565,-0.15095179 0.31029,-0.159338 0.167724,-0.008386 0.293517,0.0754759 0.134179,0.0838621 0.167724,0.22642768 0.04193,0.14256558 -0.06709,0.30190358 L 28.987969,1.5012856 Q 28.828631,1.7277133 28.618976,1.8451202 28.409321,1.954141 28.149348,1.954141 Z m 3.673164,6.2812716 q -0.368994,0 -0.578649,-0.2012691 Q 31.042594,7.8244883 31.042594,7.455495 V 3.0946656 q 0,-0.3773795 0.201269,-0.5786485 0.201269,-0.2012691 0.570262,-0.2012691 0.37738,0 0.570263,0.2012691 0.201269,0.201269 0.201269,0.5786485 v 3.8576568 h 2.046235 q 0.318676,0 0.4864,0.1677242 0.176111,0.159338 0.176111,0.4696278 0,0.3102898 -0.176111,0.478014 -0.167724,0.1677242 -0.4864,0.1677242 z m 4.931084,0 q -0.394152,0 -0.603807,-0.2012691 Q 35.94852,7.8244883 35.94852,7.4387226 V 3.1198242 q 0,-0.3857657 0.201269,-0.5870347 0.209655,-0.2096553 0.603807,-0.2096553 h 2.842925 q 0.301904,0 0.452856,0.1509518 0.150951,0.1509518 0.150951,0.436083 0,0.2935173 -0.150951,0.4528553 -0.150952,0.1509518 -0.452856,0.1509518 h -2.172028 v 1.1237522 h 1.987532 q 0.293517,0 0.444469,0.1509518 0.159338,0.1509518 0.159338,0.4444692 0,0.2935173 -0.159338,0.4444691 -0.150952,0.1509518 -0.444469,0.1509518 h -1.987532 v 1.2160005 h 2.172028 q 0.301904,0 0.452856,0.159338 0.150951,0.1509518 0.150951,0.436083 0,0.2935173 -0.150951,0.4444691 -0.150952,0.1509518 -0.452856,0.1509518 z m 4.545333,0.06709 Q 40.96348,8.3192747 40.778984,8.1347781 40.602873,7.9418952 40.602873,7.6483779 q 0,-0.2264277 0.125793,-0.3941519 0.125793,-0.1677242 0.37738,-0.1844967 L 41.34086,7.0529569 Q 41.642763,7.0361845 41.785329,6.9103913 41.927894,6.776212 41.927894,6.4743084 V 3.0275759 q 0,-0.3857657 0.201269,-0.5786485 0.201269,-0.2012691 0.570263,-0.2012691 0.368993,0 0.570262,0.2012691 0.201269,0.1928828 0.201269,0.5786485 v 3.4215739 q 0,0.5786485 -0.209655,0.9811866 -0.209655,0.3941519 -0.628966,0.6121934 -0.410924,0.2096552 -1.031504,0.2432001 z"
       id="path2" />
    <path
       style="font-weight:900;line-height:1.1;font-family:Nunito;-inkscape-font-specification:'Nunito Heavy';stroke:none"
       d="m 21.599724,15.019857 q -0.31029,0 -0.503173,-0.142566 Q 20.903668,14.72634 20.794647,14.41605 L 19.159336,9.8623375 q -0.134179,-0.3773794 0.04193,-0.637352 0.184497,-0.2683587 0.645739,-0.2683587 0.310289,0 0.4864,0.1509518 0.17611,0.1425656 0.276745,0.4528553 l 1.249545,3.7486361 h -0.394152 l 1.341794,-3.7486361 q 0.117407,-0.3102897 0.293517,-0.4528553 0.176111,-0.1509518 0.452856,-0.1509518 0.276745,0 0.444469,0.1509518 0.167724,0.1425656 0.276745,0.4612416 l 1.257931,3.7402498 h -0.335448 l 1.28309,-3.7486361 q 0.100635,-0.3102897 0.268359,-0.4528553 0.17611,-0.1509518 0.4864,-0.1509518 0.385766,0 0.561876,0.2683587 0.184497,0.2599726 0.04193,0.637352 l -1.652083,4.5620985 q -0.109021,0.301904 -0.301904,0.452855 -0.184497,0.142566 -0.494786,0.142566 -0.318676,0 -0.511559,-0.142566 -0.184497,-0.150951 -0.293518,-0.461241 l -1.182455,-3.32094 h 0.209655 L 22.4048,14.424436 q -0.117407,0.301904 -0.301904,0.452855 -0.184496,0.142566 -0.503172,0.142566 z m 7.966901,-0.07548 q -0.394152,0 -0.603807,-0.201269 -0.201269,-0.209655 -0.201269,-0.595421 V 9.8287927 q 0,-0.3857657 0.201269,-0.5870347 0.209655,-0.2096553 0.603807,-0.2096553 h 2.842926 q 0.301903,0 0.452855,0.1509518 0.150952,0.1509518 0.150952,0.4360829 0,0.2935174 -0.150952,0.4528556 -0.150952,0.150952 -0.452855,0.150952 h -2.172029 v 1.123752 h 1.987532 q 0.293517,0 0.444469,0.150952 0.159338,0.150951 0.159338,0.444469 0,0.293517 -0.159338,0.444469 -0.150952,0.150952 -0.444469,0.150952 h -1.987532 v 1.216 h 2.172029 q 0.301903,0 0.452855,0.159338 0.150952,0.150952 0.150952,0.436083 0,0.293517 -0.150952,0.444469 -0.150952,0.150952 -0.452855,0.150952 z m 5.149137,0 q -0.394152,0 -0.603807,-0.201269 -0.201269,-0.209655 -0.201269,-0.595421 V 9.8287927 q 0,-0.3857657 0.201269,-0.5870347 0.209655,-0.2096553 0.603807,-0.2096553 h 2.046235 q 0.637352,0 1.081821,0.1928828 0.452856,0.1844967 0.68767,0.5283313 0.234813,0.3438342 0.234813,0.8050762 0,0.519945 -0.301903,0.888938 -0.293518,0.368994 -0.805076,0.503173 v -0.134179 q 0.603807,0.10902 0.930869,0.4864 0.335448,0.377379 0.335448,0.964414 0,0.779918 -0.561876,1.232773 -0.55349,0.444469 -1.517904,0.444469 z m 0.670897,-1.132138 h 1.249545 q 0.427697,0 0.62058,-0.159338 0.201269,-0.167725 0.201269,-0.494787 0,-0.327062 -0.201269,-0.4864 -0.192883,-0.159338 -0.62058,-0.159338 h -1.249545 z m 0,-2.432001 h 1.098593 q 0.419311,0 0.612194,-0.150952 0.201269,-0.150952 0.201269,-0.461242 0,-0.31029 -0.201269,-0.452855 -0.192883,-0.150952 -0.612194,-0.150952 h -1.098593 z m 6.482539,3.639615 q -0.368993,0 -0.570262,-0.201269 -0.201269,-0.209655 -0.201269,-0.595421 v -2.297822 l 0.318676,0.847008 -1.928829,-2.7758361 Q 39.344949,9.7952478 39.361721,9.5520477 39.38688,9.3004614 39.56299,9.1327372 q 0.184497,-0.1761104 0.519945,-0.1761104 0.234814,0 0.427697,0.1174069 0.192883,0.1090208 0.360607,0.3773795 l 1.17407,1.7275598 h -0.301904 l 1.17407,-1.735946 q 0.17611,-0.2683587 0.360607,-0.3773795 0.184496,-0.1090207 0.436083,-0.1090207 0.318676,0 0.494786,0.159338 0.17611,0.159338 0.184497,0.4025381 0.01677,0.2432001 -0.150952,0.4947861 l -1.912056,2.759064 0.31029,-0.847008 v 2.297822 q 0,0.79669 -0.771532,0.79669 z"
       id="path4" />
  </g>
</svg>
